<svg xmlns="http://www.w3.org/2000/svg" xmlns:xlink="http://www.w3.org/1999/xlink" width="500" zoomAndPan="magnify" viewBox="0 0 375 374.999991" height="500" preserveAspectRatio="xMidYMid meet" version="1.0">
  <defs>
    <g />
    <clipPath id="b2a39fcd78">
      <path d="M 47.21875 192.554688 L 319.730469 192.554688 L 319.730469 242.242188 L 47.21875 242.242188 Z M 47.21875 192.554688 " clip-rule="nonzero" />
    </clipPath>
    <clipPath id="e9a523b461">
      <path d="M 57.71875 192.554688 L 309.222656 192.554688 C 315.019531 192.554688 319.722656 197.257812 319.722656 203.054688 L 319.722656 231.742188 C 319.722656 237.542969 315.019531 242.242188 309.222656 242.242188 L 57.71875 242.242188 C 51.917969 242.242188 47.21875 237.542969 47.21875 231.742188 L 47.21875 203.054688 C 47.21875 197.257812 51.917969 192.554688 57.71875 192.554688 Z M 57.71875 192.554688 " clip-rule="nonzero" />
    </clipPath>
    <clipPath id="ab5d878490">
      <path d="M 177.574219 69.730469 L 216.738281 69.730469 L 216.738281 108.894531 L 177.574219 108.894531 Z M 177.574219 69.730469 " clip-rule="nonzero" />
    </clipPath>
    <clipPath id="799c781af7">
      <path d="M 197.15625 69.730469 C 186.339844 69.730469 177.574219 78.496094 177.574219 89.3125 C 177.574219 100.125 186.339844 108.894531 197.15625 108.894531 C 207.96875 108.894531 216.738281 100.125 216.738281 89.3125 C 216.738281 78.496094 207.96875 69.730469 197.15625 69.730469 Z M 197.15625 69.730469 " clip-rule="nonzero" />
    </clipPath>
  </defs>
  <rect x="-37.5" width="450" fill="#ffffff" y="-37.499999" height="449.999989" fill-opacity="1" />
  <rect x="-37.5" width="450" fill="#ffffff" y="-37.499999" height="449.999989" fill-opacity="1" />
  <g fill="#ef5d29" fill-opacity="1">
    <g transform="translate(49.181104, 182.212806)">
      <g>
        <path d="M 20.3125 -67.5625 L 20.3125 0 L 4.90625 0 L 4.90625 -67.5625 Z M 20.3125 -67.5625 " />
      </g>
    </g>
  </g>
  <g fill="#ef5d29" fill-opacity="1">
    <g transform="translate(74.40078, 182.212806)">
      <g>
        <path d="M 4.90625 0 L 4.90625 -42.015625 L 19.40625 -42.015625 L 19.40625 -37.59375 L 19.578125 -37.59375 C 23.335938 -41.351562 27.347656 -43.234375 31.609375 -43.234375 C 33.679688 -43.234375 35.738281 -42.957031 37.78125 -42.40625 C 39.832031 -41.863281 41.800781 -41.019531 43.6875 -39.875 C 45.570312 -38.726562 47.097656 -37.101562 48.265625 -35 C 49.441406 -32.90625 50.03125 -30.460938 50.03125 -27.671875 L 50.03125 0 L 35.546875 0 L 35.546875 -23.75 C 35.546875 -25.9375 34.847656 -27.847656 33.453125 -29.484375 C 32.054688 -31.117188 30.238281 -31.9375 28 -31.9375 C 25.820312 -31.9375 23.84375 -31.085938 22.0625 -29.390625 C 20.289062 -27.703125 19.40625 -25.820312 19.40625 -23.75 L 19.40625 0 Z M 4.90625 0 " />
      </g>
    </g>
  </g>
  <g fill="#ef5d29" fill-opacity="1">
    <g transform="translate(128.524819, 182.212806)">
      <g>
        <path d="M 7.78125 -5.1875 C 3.851562 -9.476562 1.890625 -14.734375 1.890625 -20.953125 C 1.890625 -27.179688 3.851562 -32.453125 7.78125 -36.765625 C 11.707031 -41.078125 16.703125 -43.234375 22.765625 -43.234375 C 28.335938 -43.234375 32.921875 -41.488281 36.515625 -38 L 36.515625 -70.421875 L 51.015625 -70.421875 L 51.015625 0 L 36.6875 0 L 36.6875 -4.75 L 36.515625 -4.75 C 32.921875 -0.757812 28.335938 1.234375 22.765625 1.234375 C 16.703125 1.234375 11.707031 -0.90625 7.78125 -5.1875 Z M 20.09375 -28.078125 C 18.21875 -26.222656 17.28125 -23.847656 17.28125 -20.953125 C 17.28125 -18.066406 18.179688 -15.707031 19.984375 -13.875 C 21.785156 -12.050781 24.160156 -11.140625 27.109375 -11.140625 C 29.941406 -11.140625 32.269531 -12.066406 34.09375 -13.921875 C 35.925781 -15.773438 36.84375 -18.125 36.84375 -20.96875 C 36.84375 -23.851562 35.898438 -26.222656 34.015625 -28.078125 C 32.140625 -29.941406 29.835938 -30.875 27.109375 -30.875 C 24.316406 -30.875 21.976562 -29.941406 20.09375 -28.078125 Z M 20.09375 -28.078125 " />
      </g>
    </g>
  </g>
  <g fill="#ef5d29" fill-opacity="1">
    <g transform="translate(184.450265, 182.212806)">
      <g>
        <path d="M 20.3125 -67.5625 L 20.3125 0 L 4.90625 0 L 4.90625 -67.5625 Z M 20.3125 -67.5625 " />
      </g>
    </g>
  </g>
  <g fill="#ef5d29" fill-opacity="1">
    <g transform="translate(209.669941, 182.212806)">
      <g>
        <path d="M 7.78125 -5.1875 C 3.851562 -9.476562 1.890625 -14.734375 1.890625 -20.953125 C 1.890625 -27.179688 3.851562 -32.453125 7.78125 -36.765625 C 11.707031 -41.078125 16.703125 -43.234375 22.765625 -43.234375 C 28.335938 -43.234375 32.921875 -41.488281 36.515625 -38 L 36.515625 -42.015625 L 51.015625 -42.015625 L 51.015625 0 L 36.6875 0 L 36.6875 -4.75 L 36.515625 -4.75 C 32.921875 -0.757812 28.335938 1.234375 22.765625 1.234375 C 16.703125 1.234375 11.707031 -0.90625 7.78125 -5.1875 Z M 20.09375 -28.078125 C 18.21875 -26.222656 17.28125 -23.847656 17.28125 -20.953125 C 17.28125 -18.066406 18.179688 -15.707031 19.984375 -13.875 C 21.785156 -12.050781 24.160156 -11.140625 27.109375 -11.140625 C 29.941406 -11.140625 32.269531 -12.066406 34.09375 -13.921875 C 35.925781 -15.773438 36.84375 -18.125 36.84375 -20.96875 C 36.84375 -23.851562 35.898438 -26.222656 34.015625 -28.078125 C 32.140625 -29.941406 29.835938 -30.875 27.109375 -30.875 C 24.316406 -30.875 21.976562 -29.941406 20.09375 -28.078125 Z M 20.09375 -28.078125 " />
      </g>
    </g>
  </g>
  <g fill="#ef5d29" fill-opacity="1">
    <g transform="translate(265.595388, 182.212806)">
      <g>
        <path d="M 4.90625 0 L 4.90625 -42.015625 L 19.40625 -42.015625 L 19.40625 -37.59375 L 19.578125 -37.59375 C 23.335938 -41.351562 27.347656 -43.234375 31.609375 -43.234375 C 33.679688 -43.234375 35.738281 -42.957031 37.78125 -42.40625 C 39.832031 -41.863281 41.800781 -41.019531 43.6875 -39.875 C 45.570312 -38.726562 47.097656 -37.101562 48.265625 -35 C 49.441406 -32.90625 50.03125 -30.460938 50.03125 -27.671875 L 50.03125 0 L 35.546875 0 L 35.546875 -23.75 C 35.546875 -25.9375 34.847656 -27.847656 33.453125 -29.484375 C 32.054688 -31.117188 30.238281 -31.9375 28 -31.9375 C 25.820312 -31.9375 23.84375 -31.085938 22.0625 -29.390625 C 20.289062 -27.703125 19.40625 -25.820312 19.40625 -23.75 L 19.40625 0 Z M 4.90625 0 " />
      </g>
    </g>
  </g>
  <g clip-path="url(#b2a39fcd78)">
    <g clip-path="url(#e9a523b461)">
      <path fill="#00913b" d="M 47.21875 192.554688 L 319.730469 192.554688 L 319.730469 242.242188 L 47.21875 242.242188 Z M 47.21875 192.554688 " fill-opacity="1" fill-rule="nonzero" />
    </g>
  </g>
  <g fill="#ffffff" fill-opacity="1">
    <g transform="translate(52.556552, 236.38642)">
      <g>
        <path d="M 11.796875 -15.75 L 11.796875 0 L 2.859375 0 L 2.859375 -39.265625 L 11.796875 -39.265625 L 11.796875 -23.609375 L 24.46875 -23.609375 L 24.46875 -39.265625 L 33.40625 -39.265625 L 33.40625 0 L 24.46875 0 L 24.46875 -15.75 Z M 11.796875 -15.75 " />
      </g>
    </g>
  </g>
  <g fill="#ffffff" fill-opacity="1">
    <g transform="translate(90.960852, 236.38642)">
      <g>
        <path d="M 25.3125 -39.265625 L 25.3125 -31.40625 L 11.796875 -31.40625 L 11.796875 -23.609375 L 24.75 -23.609375 L 24.75 -15.75 L 11.796875 -15.75 L 11.796875 -7.859375 L 25.3125 -7.859375 L 25.3125 0 L 2.859375 0 L 2.859375 -39.265625 Z M 25.3125 -39.265625 " />
      </g>
    </g>
  </g>
  <g fill="#ffffff" fill-opacity="1">
    <g transform="translate(120.704031, 236.38642)">
      <g>
        <path d="M 2.859375 -39.265625 L 16.890625 -39.265625 C 20.671875 -39.265625 23.75 -38.253906 26.125 -36.234375 C 28.507812 -34.222656 29.703125 -31.347656 29.703125 -27.609375 C 29.703125 -24.710938 28.976562 -22.289062 27.53125 -20.34375 C 26.09375 -18.394531 24.132812 -17.023438 21.65625 -16.234375 L 35.171875 0 L 23.796875 0 L 11.796875 -15.515625 L 11.796875 0 L 2.859375 0 Z M 11.796875 -21.84375 L 12.84375 -21.84375 C 13.675781 -21.84375 14.375 -21.859375 14.9375 -21.890625 C 15.507812 -21.921875 16.160156 -22.03125 16.890625 -22.21875 C 17.617188 -22.414062 18.207031 -22.6875 18.65625 -23.03125 C 19.101562 -23.382812 19.484375 -23.894531 19.796875 -24.5625 C 20.117188 -25.226562 20.28125 -26.035156 20.28125 -26.984375 C 20.28125 -27.929688 20.117188 -28.738281 19.796875 -29.40625 C 19.484375 -30.070312 19.101562 -30.578125 18.65625 -30.921875 C 18.207031 -31.273438 17.617188 -31.546875 16.890625 -31.734375 C 16.160156 -31.929688 15.507812 -32.046875 14.9375 -32.078125 C 14.375 -32.109375 13.675781 -32.125 12.84375 -32.125 L 11.796875 -32.125 Z M 11.796875 -21.84375 " />
      </g>
    </g>
  </g>
  <g fill="#ffffff" fill-opacity="1">
    <g transform="translate(156.919257, 236.38642)">
      <g>
        <path d="M 11.796875 -39.265625 L 11.796875 0 L 2.859375 0 L 2.859375 -39.265625 Z M 11.796875 -39.265625 " />
      </g>
    </g>
  </g>
  <g fill="#ffffff" fill-opacity="1">
    <g transform="translate(173.718355, 236.38642)">
      <g>
        <path d="M 0.375 -31.40625 L 0.375 -39.265625 L 27.984375 -39.265625 L 27.984375 -31.40625 L 18.65625 -31.40625 L 18.65625 0 L 9.703125 0 L 9.703125 -31.40625 Z M 0.375 -31.40625 " />
      </g>
    </g>
  </g>
  <g fill="#ffffff" fill-opacity="1">
    <g transform="translate(204.22295, 236.38642)">
      <g>
        <path d="M 22.796875 -39.265625 L 38.640625 0 L 29.03125 0 L 26.125 -7.859375 L 11.1875 -7.859375 L 8.28125 0 L -1.328125 0 L 14.515625 -39.265625 Z M 23.078125 -15.703125 L 18.703125 -27.125 L 18.609375 -27.125 L 14.234375 -15.703125 Z M 23.078125 -15.703125 " />
      </g>
    </g>
  </g>
  <g fill="#ffffff" fill-opacity="1">
    <g transform="translate(243.674192, 236.38642)">
      <g>
        <path d="M 38.359375 -21.984375 L 38.359375 -13.46875 C 37.347656 -8.800781 35.128906 -5.269531 31.703125 -2.875 C 28.273438 -0.476562 24.453125 0.71875 20.234375 0.71875 C 14.929688 0.71875 10.414062 -1.265625 6.6875 -5.234375 C 2.957031 -9.203125 1.09375 -13.992188 1.09375 -19.609375 C 1.09375 -25.316406 2.914062 -30.140625 6.5625 -34.078125 C 10.21875 -38.015625 14.773438 -39.984375 20.234375 -39.984375 C 26.609375 -39.984375 31.648438 -37.742188 35.359375 -33.265625 L 29.515625 -26.84375 C 27.410156 -30.207031 24.488281 -31.890625 20.75 -31.890625 C 17.988281 -31.890625 15.628906 -30.691406 13.671875 -28.296875 C 11.722656 -25.898438 10.75 -23.003906 10.75 -19.609375 C 10.75 -16.273438 11.722656 -13.425781 13.671875 -11.0625 C 15.628906 -8.695312 17.988281 -7.515625 20.75 -7.515625 C 23.03125 -7.515625 25.019531 -8.203125 26.71875 -9.578125 C 28.414062 -10.960938 29.265625 -12.800781 29.265625 -15.09375 L 20.234375 -15.09375 L 20.234375 -21.984375 Z M 38.359375 -21.984375 " />
      </g>
    </g>
  </g>
  <g fill="#ffffff" fill-opacity="1">
    <g transform="translate(285.266921, 236.38642)">
      <g>
        <path d="M 25.3125 -39.265625 L 25.3125 -31.40625 L 11.796875 -31.40625 L 11.796875 -23.609375 L 24.75 -23.609375 L 24.75 -15.75 L 11.796875 -15.75 L 11.796875 -7.859375 L 25.3125 -7.859375 L 25.3125 0 L 2.859375 0 L 2.859375 -39.265625 Z M 25.3125 -39.265625 " />
      </g>
    </g>
  </g>
  <g clip-path="url(#ab5d878490)">
    <g clip-path="url(#799c781af7)">
      <path fill="#e7191f" d="M 177.574219 69.730469 L 216.738281 69.730469 L 216.738281 108.894531 L 177.574219 108.894531 Z M 177.574219 69.730469 " fill-opacity="1" fill-rule="nonzero" />
    </g>
  </g>
</svg>